<svg width="723" height="108" viewBox="0 0 723 108" fill="none" xmlns="http://www.w3.org/2000/svg">
<path d="M0.467773 47.9189C0.467773 32.1475 13.1875 24.2617 38.627 24.2617C65.3848 24.2617 78.7637 31.2686 78.7637 45.2822C78.7637 46.5518 78.3486 47.626 77.5186 48.5049C76.6885 49.335 75.6143 49.75 74.2959 49.75H63.3828C59.8672 49.75 56.9131 48.2852 54.5205 45.3555C52.1279 42.377 47.416 40.8877 40.3848 40.8877C30.7168 40.8877 25.8828 43.2314 25.8828 47.9189C25.8828 50.1162 27.7627 51.9473 31.5225 53.4121C35.3311 54.877 39.9453 56.1709 45.3652 57.2939C50.834 58.3682 56.2783 59.7598 61.6982 61.4688C67.1182 63.1777 71.708 65.9121 75.4678 69.6719C79.2764 73.3828 81.1807 78.0947 81.1807 83.8076C81.1807 99.5791 67.7529 107.465 40.8975 107.465C14.042 107.465 0.614258 100.482 0.614258 86.5176C0.614258 85.1992 1.0293 84.125 1.85938 83.2949C2.73828 82.416 3.83691 81.9766 5.15527 81.9766H16.0684C19.584 81.9766 22.5381 83.4658 24.9307 86.4443C27.3232 89.374 32.0352 90.8389 39.0664 90.8389C50.248 90.8389 55.8389 88.4951 55.8389 83.8076C55.8389 81.6104 53.9346 79.7793 50.126 78.3145C46.3662 76.8496 41.752 75.5557 36.2832 74.4326C30.8145 73.2607 25.3701 71.8447 19.9502 70.1846C14.5791 68.4756 9.98926 65.7412 6.18066 61.9814C2.37207 58.2217 0.467773 53.5342 0.467773 47.9189ZM101.688 96.918C94.0713 89.8867 90.2627 79.5352 90.2627 65.8633C90.2627 52.1426 94.0713 41.791 101.688 34.8086C109.306 27.7773 120.243 24.2617 134.501 24.2617C148.808 24.2617 159.77 27.7773 167.387 34.8086C175.004 41.791 178.812 52.1426 178.812 65.8633C178.812 79.5352 175.004 89.8867 167.387 96.918C159.77 103.949 148.808 107.465 134.501 107.465C120.243 107.465 109.306 103.949 101.688 96.918ZM120.219 46.8203C117.191 50.7754 115.678 57.0986 115.678 65.79C115.678 74.4814 117.191 80.8291 120.219 84.833C123.246 88.8369 128.007 90.8389 134.501 90.8389C141.044 90.8389 145.829 88.8369 148.856 84.833C151.933 80.8291 153.471 74.4814 153.471 65.79C153.471 57.0986 151.933 50.7754 148.856 46.8203C145.829 42.8652 141.044 40.8877 134.501 40.8877C128.007 40.8877 123.246 42.8652 120.219 46.8203ZM231.181 107.465C217.509 107.465 206.864 103.949 199.247 96.918C191.63 89.8867 187.821 79.5596 187.821 65.9365C187.821 52.2646 191.605 41.9131 199.174 34.8818C206.742 27.8018 217.265 24.2617 230.741 24.2617C244.267 24.2617 254.643 26.4102 261.869 30.707C269.145 35.0039 272.782 41.3516 272.782 49.75C272.782 51.0684 272.343 52.1426 271.464 52.9727C270.634 53.8027 269.56 54.2178 268.241 54.2178H257.328C254.008 54.2178 251.2 52.4355 248.905 48.8711C246.024 44.2812 240.922 41.9863 233.598 41.9863C226.322 41.9863 221.22 43.8662 218.29 47.626C215.409 51.3369 213.969 57.416 213.969 65.8633C213.969 74.3105 215.458 80.4141 218.437 84.1738C221.464 87.9336 226.688 89.8135 234.11 89.8135C241.581 89.8135 246.757 87.5186 249.638 82.9287C251.933 79.3154 254.74 77.5088 258.061 77.5088H268.974C270.292 77.5088 271.366 77.9482 272.196 78.8271C273.075 79.6572 273.515 80.707 273.515 81.9766C273.515 90.375 269.877 96.7227 262.602 101.02C255.375 105.316 244.901 107.465 231.181 107.465ZM324.345 107.465C310.673 107.465 300.028 103.949 292.411 96.918C284.794 89.8867 280.985 79.5596 280.985 65.9365C280.985 52.2646 284.77 41.9131 292.338 34.8818C299.906 27.8018 310.429 24.2617 323.905 24.2617C337.431 24.2617 347.807 26.4102 355.033 30.707C362.309 35.0039 365.946 41.3516 365.946 49.75C365.946 51.0684 365.507 52.1426 364.628 52.9727C363.798 53.8027 362.724 54.2178 361.405 54.2178H350.492C347.172 54.2178 344.364 52.4355 342.069 48.8711C339.188 44.2812 334.086 41.9863 326.762 41.9863C319.486 41.9863 314.384 43.8662 311.454 47.626C308.573 51.3369 307.133 57.416 307.133 65.8633C307.133 74.3105 308.622 80.4141 311.601 84.1738C314.628 87.9336 319.853 89.8135 327.274 89.8135C334.745 89.8135 339.921 87.5186 342.802 82.9287C345.097 79.3154 347.904 77.5088 351.225 77.5088H362.138C363.456 77.5088 364.53 77.9482 365.36 78.8271C366.239 79.6572 366.679 80.707 366.679 81.9766C366.679 90.375 363.041 96.7227 355.766 101.02C348.539 105.316 338.065 107.465 324.345 107.465ZM385.429 96.7715C377.909 89.6426 374.149 79.3887 374.149 66.0098C374.149 52.582 377.934 42.2793 385.502 35.1016C393.07 27.875 403.568 24.2617 416.996 24.2617C430.424 24.2617 440.897 27.7773 448.417 34.8086C455.937 41.791 459.696 51.8252 459.696 64.9111V69.0859C459.696 70.4043 459.257 71.5029 458.378 72.3818C457.548 73.2119 456.474 73.627 455.155 73.627H400.004C400.492 79.6328 402.201 84.0029 405.131 86.7373C408.109 89.4717 412.846 90.8389 419.34 90.8389C425.834 90.8389 430.277 89.374 432.67 86.4443C435.062 83.5146 438.017 82.0254 441.532 81.9766H452.445C453.764 81.9766 454.838 82.416 455.668 83.2949C456.547 84.125 456.986 85.1992 456.986 86.5176C456.986 100.531 443.632 107.514 416.923 107.465C403.446 107.465 392.948 103.9 385.429 96.7715ZM399.857 58.1729H433.915C433.427 46.6494 427.763 40.8877 416.923 40.8877C406.132 40.8877 400.443 46.6494 399.857 58.1729ZM528.69 44.3301L517.411 43.8906C510.819 43.8906 504.521 47.5039 498.515 54.7305V101.532C498.515 102.851 498.075 103.925 497.196 104.755C496.366 105.585 495.316 106 494.047 106H477.641C476.322 106 475.248 105.585 474.418 104.755C473.588 103.925 473.173 102.851 473.173 101.532V30.2676C473.173 28.9492 473.588 27.875 474.418 27.0449C475.297 26.166 476.371 25.7266 477.641 25.7266H494.047C495.365 25.7266 496.439 26.166 497.27 27.0449C498.1 27.875 498.515 28.9492 498.515 30.2676V34.8818C503.495 31.2686 508.28 28.6074 512.87 26.8984C517.509 25.1406 523.563 24.2617 531.034 24.2617C532.353 24.2617 533.427 24.7012 534.257 25.5801C535.136 26.4102 535.575 27.46 535.575 28.7295V39.8623C535.575 41.1807 535.136 42.2549 534.257 43.085C533.427 43.915 532.353 44.3301 531.034 44.3301H528.69ZM546.122 101.532V30.2676C546.122 28.9492 546.537 27.875 547.367 27.0449C548.246 26.166 549.32 25.7266 550.59 25.7266H566.996C568.314 25.7266 569.389 26.166 570.219 27.0449C571.049 27.875 571.464 28.9492 571.464 30.2676V34.8818C574.979 31.4639 578.422 28.8516 581.791 27.0449C585.209 25.1895 589.311 24.2617 594.096 24.2617C605.473 24.2617 614.091 28.9492 619.95 38.3242C629.032 28.9004 638.334 24.2129 647.855 24.2617C657.426 24.2617 664.97 27.1426 670.487 32.9043C676.054 38.6172 678.837 47.4795 678.837 59.4912V101.532C678.837 102.851 678.422 103.925 677.592 104.755C676.762 105.585 675.688 106 674.369 106H658.036C656.718 106 655.619 105.585 654.74 104.755C653.91 103.876 653.495 102.802 653.495 101.532V59.4912C653.495 47.7725 649.247 41.9375 640.751 41.9863C635.575 41.9863 630.229 45.7217 624.711 53.1924C625.004 55.292 625.15 57.3916 625.15 59.4912V101.532C625.15 102.851 624.711 103.925 623.832 104.755C623.002 105.585 621.952 106 620.683 106H604.35C603.031 106 601.933 105.585 601.054 104.755C600.224 103.876 599.809 102.802 599.809 101.532V59.4912C599.809 47.7725 595.561 41.9375 587.064 41.9863C581.645 41.9863 576.444 45.4775 571.464 52.46V101.532C571.464 102.851 571.024 103.925 570.146 104.755C569.315 105.585 568.266 106 566.996 106H550.59C549.271 106 548.197 105.585 547.367 104.755C546.537 103.925 546.122 102.851 546.122 101.532ZM696.854 101.532V5.51172C696.854 4.19336 697.27 3.11914 698.1 2.28906C698.979 1.41016 700.053 0.970703 701.322 0.970703H717.729C718.998 0.970703 720.048 1.41016 720.878 2.28906C721.757 3.11914 722.196 4.19336 722.196 5.51172V101.532C722.196 102.802 721.757 103.876 720.878 104.755C720.048 105.585 718.998 106 717.729 106H701.322C700.053 106 698.979 105.585 698.1 104.755C697.27 103.876 696.854 102.802 696.854 101.532Z" fill="#F5F5F5"/>
</svg>
